<svg width="1200" height="440" viewBox="0 0 1200 440" fill="none" xmlns="http://www.w3.org/2000/svg" role="img" aria-label="StateKit — Build Better States. 50+ states, one package.">
  <defs>
    <linearGradient id="brand" x1="0" y1="0" x2="1" y2="1"><stop offset="0" stop-color="#8b7cff"/><stop offset="1" stop-color="#4fd6e0"/></linearGradient>
    <linearGradient id="headline" x1="0" y1="0" x2="0" y2="1"><stop offset="0" stop-color="#ffffff"/><stop offset="1" stop-color="#b8b8c6"/></linearGradient>
    <radialGradient id="vignette" cx="0.5" cy="0.5" r="0.66"><stop offset="0" stop-color="#07070a" stop-opacity="0"/><stop offset="0.66" stop-color="#07070a" stop-opacity="0.28"/><stop offset="1" stop-color="#07070a" stop-opacity="0.72"/></radialGradient>
    <clipPath id="cardClip"><rect x="260" y="98" width="680" height="244" rx="26"/></clipPath>
    <filter id="frost" x="-15%" y="-15%" width="130%" height="130%"><feGaussianBlur stdDeviation="9"/></filter>
    <filter id="cardShadow" x="-50%" y="-50%" width="200%" height="200%"><feDropShadow dx="0" dy="22" stdDeviation="34" flood-color="#000000" flood-opacity="0.5"/></filter>
  </defs>

  <rect x="0" y="0" width="1200" height="440" rx="24" fill="#07070a"/>

  <!-- full state wall -->
  <g id="wall">
  <g transform="translate(36.0,44)">
    <rect width="152.6" height="64" rx="11" fill="#0d0d12" stroke="rgba(255,255,255,0.07)"/>
    <circle cx="76.28571428571429" cy="24" r="11" fill="none" stroke="rgba(255,255,255,0.13)" stroke-width="3"/><path d="M 76.28571428571429 13 a 11 11 0 0 1 11 11" fill="none" stroke="#8b7cff" stroke-width="3" stroke-linecap="round"/>
    <text x="76.3" y="50" text-anchor="middle" font-family="'JetBrains Mono',ui-monospace,monospace" font-size="9.5" fill="#6f6f7e">Loading</text>
  </g>
  <g transform="translate(198.6,44)">
    <rect width="152.6" height="64" rx="11" fill="#0d0d12" stroke="rgba(255,255,255,0.07)"/>
    <path d="M 76.28571428571429 14 L 87.28571428571429 33 H 65.28571428571429 Z" fill="none" stroke="#f7768e" stroke-width="2.4" stroke-linejoin="round"/><line x1="76.28571428571429" y1="22" x2="76.28571428571429" y2="27.5" stroke="#f7768e" stroke-width="2.4" stroke-linecap="round"/><circle cx="76.28571428571429" cy="30.5" r="1.3" fill="#f7768e"/>
    <text x="76.3" y="50" text-anchor="middle" font-family="'JetBrains Mono',ui-monospace,monospace" font-size="9.5" fill="#6f6f7e">Error</text>
  </g>
  <g transform="translate(361.1,44)">
    <rect width="152.6" height="64" rx="11" fill="#0d0d12" stroke="rgba(255,255,255,0.07)"/>
    <rect x="65.28571428571429" y="13" width="22" height="22" rx="5" fill="none" stroke="#6f6f7e" stroke-width="2.2" stroke-dasharray="5 4"/><line x1="76.28571428571429" y1="19" x2="76.28571428571429" y2="29" stroke="#8b7cff" stroke-width="2.2" stroke-linecap="round"/><line x1="71.28571428571429" y1="24" x2="81.28571428571429" y2="24" stroke="#8b7cff" stroke-width="2.2" stroke-linecap="round"/>
    <text x="76.3" y="50" text-anchor="middle" font-family="'JetBrains Mono',ui-monospace,monospace" font-size="9.5" fill="#6f6f7e">Empty</text>
  </g>
  <g transform="translate(523.7,44)">
    <rect width="152.6" height="64" rx="11" fill="#0d0d12" stroke="rgba(255,255,255,0.07)"/>
    <rect x="67.28571428571429" y="26" width="5" height="8" rx="2" fill="#4fd6e0"/><rect x="74.28571428571429" y="21" width="5" height="13" rx="2" fill="#4fd6e0"/><rect x="81.28571428571429" y="16" width="5" height="18" rx="2" fill="#6f6f7e"/>
    <text x="76.3" y="50" text-anchor="middle" font-family="'JetBrains Mono',ui-monospace,monospace" font-size="9.5" fill="#6f6f7e">Offline</text>
  </g>
  <g transform="translate(686.3,44)">
    <rect width="152.6" height="64" rx="11" fill="#0d0d12" stroke="rgba(255,255,255,0.07)"/>
    <circle cx="76.28571428571429" cy="24" r="11" fill="none" stroke="rgba(255,255,255,0.13)" stroke-width="3"/><path d="M 76.28571428571429 13 a 11 11 0 1 1 -7.7 2.9" fill="none" stroke="#8b7cff" stroke-width="3" stroke-linecap="round"/>
    <text x="76.3" y="50" text-anchor="middle" font-family="'JetBrains Mono',ui-monospace,monospace" font-size="9.5" fill="#6f6f7e">Retry</text>
  </g>
  <g transform="translate(848.9,44)">
    <rect width="152.6" height="64" rx="11" fill="#0d0d12" stroke="rgba(255,255,255,0.07)"/>
    <circle cx="76.28571428571429" cy="24" r="11" fill="none" stroke="#5ec98a" stroke-width="2.2" opacity="0.45"/><path d="M 71.28571428571429 24 l 4 4 l 7.5 -8.5" fill="none" stroke="#5ec98a" stroke-width="2.6" stroke-linecap="round" stroke-linejoin="round"/>
    <text x="76.3" y="50" text-anchor="middle" font-family="'JetBrains Mono',ui-monospace,monospace" font-size="9.5" fill="#6f6f7e">Success</text>
  </g>
  <g transform="translate(1011.4,44)">
    <rect width="152.6" height="64" rx="11" fill="#0d0d12" stroke="rgba(255,255,255,0.07)"/>
    <circle cx="73.28571428571429" cy="21" r="8" fill="none" stroke="#e9e9ef" stroke-width="2.4"/><line x1="78.9857142857143" y1="26.7" x2="85.28571428571429" y2="33" stroke="#e9e9ef" stroke-width="2.4" stroke-linecap="round"/>
    <text x="76.3" y="50" text-anchor="middle" font-family="'JetBrains Mono',ui-monospace,monospace" font-size="9.5" fill="#6f6f7e">Search</text>
  </g>
  <g transform="translate(36.0,118)">
    <rect width="152.6" height="64" rx="11" fill="#0d0d12" stroke="rgba(255,255,255,0.07)"/>
    <text x="76.28571428571429" y="30" text-anchor="middle" font-family="ui-monospace,monospace" font-size="16" font-weight="700" fill="#8b7cff">404</text>
    <text x="76.3" y="50" text-anchor="middle" font-family="'JetBrains Mono',ui-monospace,monospace" font-size="9.5" fill="#6f6f7e">Not Found</text>
  </g>
  <g transform="translate(198.6,118)">
    <rect width="152.6" height="64" rx="11" fill="#0d0d12" stroke="rgba(255,255,255,0.07)"/>
    <rect x="67.28571428571429" y="22" width="18" height="14" rx="3.5" fill="none" stroke="#4fd6e0" stroke-width="2.4"/><path d="M 71.28571428571429 22 v-4 a5 5 0 0 1 10 0 v4" fill="none" stroke="#4fd6e0" stroke-width="2.4" stroke-linecap="round"/>
    <text x="76.3" y="50" text-anchor="middle" font-family="'JetBrains Mono',ui-monospace,monospace" font-size="9.5" fill="#6f6f7e">Access</text>
  </g>
  <g transform="translate(361.1,118)">
    <rect width="152.6" height="64" rx="11" fill="#0d0d12" stroke="rgba(255,255,255,0.07)"/>
    <rect x="61.28571428571429" y="20" width="30" height="4.5" rx="2" fill="rgba(255,255,255,0.14)"/><rect x="61.28571428571429" y="28" width="20" height="4.5" rx="2" fill="rgba(255,255,255,0.09)"/>
    <text x="76.3" y="50" text-anchor="middle" font-family="'JetBrains Mono',ui-monospace,monospace" font-size="9.5" fill="#6f6f7e">Skeleton</text>
  </g>
  <g transform="translate(523.7,118)">
    <rect width="152.6" height="64" rx="11" fill="#0d0d12" stroke="rgba(255,255,255,0.07)"/>
    <circle cx="76.28571428571429" cy="24" r="11" fill="none" stroke="rgba(255,255,255,0.13)" stroke-width="3"/><path d="M 76.28571428571429 13 a 11 11 0 1 1 -7.7 2.9" fill="none" stroke="#e0c060" stroke-width="3" stroke-linecap="round"/>
    <text x="76.3" y="50" text-anchor="middle" font-family="'JetBrains Mono',ui-monospace,monospace" font-size="9.5" fill="#6f6f7e">Rate Limit</text>
  </g>
  <g transform="translate(686.3,118)">
    <rect width="152.6" height="64" rx="11" fill="#0d0d12" stroke="rgba(255,255,255,0.07)"/>
    <circle cx="76.28571428571429" cy="24" r="11" fill="none" stroke="#e0c060" stroke-width="2.6" stroke-dasharray="4 5"/>
    <text x="76.3" y="50" text-anchor="middle" font-family="'JetBrains Mono',ui-monospace,monospace" font-size="9.5" fill="#6f6f7e">Maintenance</text>
  </g>
  <g transform="translate(848.9,118)">
    <rect width="152.6" height="64" rx="11" fill="#0d0d12" stroke="rgba(255,255,255,0.07)"/>
    <circle cx="69.28571428571429" cy="24" r="3" fill="#8b7cff"/><circle cx="76.28571428571429" cy="24" r="3" fill="#8b7cff"/><circle cx="83.28571428571429" cy="24" r="3" fill="#8b7cff"/>
    <text x="76.3" y="50" text-anchor="middle" font-family="'JetBrains Mono',ui-monospace,monospace" font-size="9.5" fill="#6f6f7e">Typing</text>
  </g>
  <g transform="translate(1011.4,118)">
    <rect width="152.6" height="64" rx="11" fill="#0d0d12" stroke="rgba(255,255,255,0.07)"/>
    <rect x="67.28571428571429" y="20" width="3" height="12" rx="1.5" fill="#4fd6e0"/><rect x="72.58571428571429" y="14" width="3" height="18" rx="1.5" fill="#4fd6e0"/><rect x="77.88571428571429" y="18" width="3" height="14" rx="1.5" fill="#4fd6e0"/><rect x="83.18571428571428" y="14" width="3" height="18" rx="1.5" fill="#4fd6e0"/>
    <text x="76.3" y="50" text-anchor="middle" font-family="'JetBrains Mono',ui-monospace,monospace" font-size="9.5" fill="#6f6f7e">Wave</text>
  </g>
  <g transform="translate(36.0,192)">
    <rect width="152.6" height="64" rx="11" fill="#0d0d12" stroke="rgba(255,255,255,0.07)"/>
    <circle cx="76.28571428571429" cy="24" r="11" fill="none" stroke="rgba(255,255,255,0.13)" stroke-width="3"/><path d="M 76.28571428571429 13 a 11 11 0 0 1 11 11" fill="none" stroke="#4fd6e0" stroke-width="3" stroke-linecap="round"/>
    <text x="76.3" y="50" text-anchor="middle" font-family="'JetBrains Mono',ui-monospace,monospace" font-size="9.5" fill="#6f6f7e">Reconnect</text>
  </g>
  <g transform="translate(198.6,192)">
    <rect width="152.6" height="64" rx="11" fill="#0d0d12" stroke="rgba(255,255,255,0.07)"/>
    <path d="M 76.28571428571429 14 L 87.28571428571429 33 H 65.28571428571429 Z" fill="none" stroke="#e0c060" stroke-width="2.4" stroke-linejoin="round"/><line x1="76.28571428571429" y1="22" x2="76.28571428571429" y2="27.5" stroke="#e0c060" stroke-width="2.4" stroke-linecap="round"/><circle cx="76.28571428571429" cy="30.5" r="1.3" fill="#e0c060"/>
    <text x="76.3" y="50" text-anchor="middle" font-family="'JetBrains Mono',ui-monospace,monospace" font-size="9.5" fill="#6f6f7e">Server 500</text>
  </g>
  <g transform="translate(361.1,192)">
    <rect width="152.6" height="64" rx="11" fill="#0d0d12" stroke="rgba(255,255,255,0.07)"/>
    <circle cx="76.28571428571429" cy="24" r="11" fill="none" stroke="rgba(255,255,255,0.13)" stroke-width="3"/><path d="M 76.28571428571429 13 a 11 11 0 0 1 11 11" fill="none" stroke="#8b7cff" stroke-width="3" stroke-linecap="round"/>
    <text x="76.3" y="50" text-anchor="middle" font-family="'JetBrains Mono',ui-monospace,monospace" font-size="9.5" fill="#6f6f7e">Sync</text>
  </g>
  <g transform="translate(523.7,192)">
    <rect width="152.6" height="64" rx="11" fill="#0d0d12" stroke="rgba(255,255,255,0.07)"/>
    <circle cx="76.28571428571429" cy="24" r="11" fill="none" stroke="rgba(255,255,255,0.13)" stroke-width="3"/><path d="M 76.28571428571429 13 a 11 11 0 1 1 -7.7 2.9" fill="none" stroke="#4fd6e0" stroke-width="3" stroke-linecap="round"/>
    <text x="76.3" y="50" text-anchor="middle" font-family="'JetBrains Mono',ui-monospace,monospace" font-size="9.5" fill="#6f6f7e">Timeout</text>
  </g>
  <g transform="translate(686.3,192)">
    <rect width="152.6" height="64" rx="11" fill="#0d0d12" stroke="rgba(255,255,255,0.07)"/>
    <rect x="65.28571428571429" y="13" width="22" height="22" rx="5" fill="none" stroke="#6f6f7e" stroke-width="2.2" stroke-dasharray="5 4"/>
    <text x="76.3" y="50" text-anchor="middle" font-family="'JetBrains Mono',ui-monospace,monospace" font-size="9.5" fill="#6f6f7e">No Results</text>
  </g>
  <g transform="translate(848.9,192)">
    <rect width="152.6" height="64" rx="11" fill="#0d0d12" stroke="rgba(255,255,255,0.07)"/>
    <rect x="67.28571428571429" y="22" width="18" height="14" rx="3.5" fill="none" stroke="#5ec98a" stroke-width="2.4"/><path d="M 71.28571428571429 22 v-4 a5 5 0 0 1 10 0 v4" fill="none" stroke="#5ec98a" stroke-width="2.4" stroke-linecap="round"/>
    <text x="76.3" y="50" text-anchor="middle" font-family="'JetBrains Mono',ui-monospace,monospace" font-size="9.5" fill="#6f6f7e">Session</text>
  </g>
  <g transform="translate(1011.4,192)">
    <rect width="152.6" height="64" rx="11" fill="#0d0d12" stroke="rgba(255,255,255,0.07)"/>
    <rect x="61.28571428571429" y="20" width="30" height="4.5" rx="2" fill="rgba(255,255,255,0.14)"/><rect x="61.28571428571429" y="28" width="20" height="4.5" rx="2" fill="rgba(255,255,255,0.09)"/>
    <text x="76.3" y="50" text-anchor="middle" font-family="'JetBrains Mono',ui-monospace,monospace" font-size="9.5" fill="#6f6f7e">Stale Data</text>
  </g>
  <g transform="translate(36.0,266)">
    <rect width="152.6" height="64" rx="11" fill="#0d0d12" stroke="rgba(255,255,255,0.07)"/>
    <circle cx="76.28571428571429" cy="24" r="11" fill="none" stroke="#5ec98a" stroke-width="2.2" opacity="0.45"/><path d="M 71.28571428571429 24 l 4 4 l 7.5 -8.5" fill="none" stroke="#5ec98a" stroke-width="2.6" stroke-linecap="round" stroke-linejoin="round"/>
    <text x="76.3" y="50" text-anchor="middle" font-family="'JetBrains Mono',ui-monospace,monospace" font-size="9.5" fill="#6f6f7e">Completed</text>
  </g>
  <g transform="translate(198.6,266)">
    <rect width="152.6" height="64" rx="11" fill="#0d0d12" stroke="rgba(255,255,255,0.07)"/>
    <rect x="67.28571428571429" y="22" width="18" height="14" rx="3.5" fill="none" stroke="#f7768e" stroke-width="2.4"/><path d="M 71.28571428571429 22 v-4 a5 5 0 0 1 10 0 v4" fill="none" stroke="#f7768e" stroke-width="2.4" stroke-linecap="round"/>
    <text x="76.3" y="50" text-anchor="middle" font-family="'JetBrains Mono',ui-monospace,monospace" font-size="9.5" fill="#6f6f7e">Forbidden</text>
  </g>
  <g transform="translate(361.1,266)">
    <rect width="152.6" height="64" rx="11" fill="#0d0d12" stroke="rgba(255,255,255,0.07)"/>
    <circle cx="76.28571428571429" cy="24" r="11" fill="none" stroke="rgba(255,255,255,0.13)" stroke-width="3"/><path d="M 76.28571428571429 13 a 11 11 0 1 1 -7.7 2.9" fill="none" stroke="#e0c060" stroke-width="3" stroke-linecap="round"/>
    <text x="76.3" y="50" text-anchor="middle" font-family="'JetBrains Mono',ui-monospace,monospace" font-size="9.5" fill="#6f6f7e">Quota</text>
  </g>
  <g transform="translate(523.7,266)">
    <rect width="152.6" height="64" rx="11" fill="#0d0d12" stroke="rgba(255,255,255,0.07)"/>
    <circle cx="72.28571428571429" cy="24" r="3" fill="#4fd6e0"/><circle cx="80.28571428571429" cy="24" r="3" fill="#4fd6e0"/>
    <text x="76.3" y="50" text-anchor="middle" font-family="'JetBrains Mono',ui-monospace,monospace" font-size="9.5" fill="#6f6f7e">Orbit</text>
  </g>
  <g transform="translate(686.3,266)">
    <rect width="152.6" height="64" rx="11" fill="#0d0d12" stroke="rgba(255,255,255,0.07)"/>
    <rect x="67.28571428571429" y="26" width="5" height="8" rx="2" fill="#4fd6e0"/><rect x="74.28571428571429" y="21" width="5" height="13" rx="2" fill="#6f6f7e"/><rect x="81.28571428571429" y="16" width="5" height="18" rx="2" fill="#6f6f7e"/>
    <text x="76.3" y="50" text-anchor="middle" font-family="'JetBrains Mono',ui-monospace,monospace" font-size="9.5" fill="#6f6f7e">No Signal</text>
  </g>
  <g transform="translate(848.9,266)">
    <rect width="152.6" height="64" rx="11" fill="#0d0d12" stroke="rgba(255,255,255,0.07)"/>
    <rect x="64.28571428571429" y="18" width="24" height="13" rx="3" fill="rgba(247,118,142,0.08)" stroke="#f7768e" stroke-width="1.5"/>
    <text x="76.3" y="50" text-anchor="middle" font-family="'JetBrains Mono',ui-monospace,monospace" font-size="9.5" fill="#6f6f7e">Validation</text>
  </g>
  <g transform="translate(1011.4,266)">
    <rect width="152.6" height="64" rx="11" fill="#0d0d12" stroke="rgba(255,255,255,0.07)"/>
    <rect x="60.28571428571429" y="21.5" width="32" height="5" rx="2.5" fill="rgba(255,255,255,0.12)"/><rect x="60.28571428571429" y="21.5" width="13" height="5" rx="2.5" fill="url(#brand)"/>
    <text x="76.3" y="50" text-anchor="middle" font-family="'JetBrains Mono',ui-monospace,monospace" font-size="9.5" fill="#6f6f7e">Progress</text>
  </g>
  <g transform="translate(36.0,340)">
    <rect width="152.6" height="64" rx="11" fill="#0d0d12" stroke="rgba(255,255,255,0.07)"/>
    <rect x="65.28571428571429" y="13" width="22" height="22" rx="5" fill="none" stroke="#6f6f7e" stroke-width="2.2" stroke-dasharray="5 4"/>
    <text x="76.3" y="50" text-anchor="middle" font-family="'JetBrains Mono',ui-monospace,monospace" font-size="9.5" fill="#6f6f7e">Inbox Zero</text>
  </g>
  <g transform="translate(198.6,340)">
    <rect width="152.6" height="64" rx="11" fill="#0d0d12" stroke="rgba(255,255,255,0.07)"/>
    <rect x="67.28571428571429" y="23" width="5" height="9" rx="1.5" fill="#e0c060"/><rect x="74.28571428571429" y="18" width="5" height="14" rx="1.5" fill="#e0c060"/><rect x="81.28571428571429" y="14" width="5" height="18" rx="1.5" fill="#e0c060"/>
    <text x="76.3" y="50" text-anchor="middle" font-family="'JetBrains Mono',ui-monospace,monospace" font-size="9.5" fill="#6f6f7e">Dashboard</text>
  </g>
  <g transform="translate(361.1,340)">
    <rect width="152.6" height="64" rx="11" fill="#0d0d12" stroke="rgba(255,255,255,0.07)"/>
    <path d="M 76.28571428571429 14 L 87.28571428571429 33 H 65.28571428571429 Z" fill="none" stroke="#f7768e" stroke-width="2.4" stroke-linejoin="round"/><line x1="76.28571428571429" y1="22" x2="76.28571428571429" y2="27.5" stroke="#f7768e" stroke-width="2.4" stroke-linecap="round"/><circle cx="76.28571428571429" cy="30.5" r="1.3" fill="#f7768e"/>
    <text x="76.3" y="50" text-anchor="middle" font-family="'JetBrains Mono',ui-monospace,monospace" font-size="9.5" fill="#6f6f7e">Partial Fail</text>
  </g>
  <g transform="translate(523.7,340)">
    <rect width="152.6" height="64" rx="11" fill="#0d0d12" stroke="rgba(255,255,255,0.07)"/>
    <rect x="67.28571428571429" y="22" width="18" height="14" rx="3.5" fill="none" stroke="#4fd6e0" stroke-width="2.4"/><path d="M 71.28571428571429 22 v-4 a5 5 0 0 1 10 0 v4" fill="none" stroke="#4fd6e0" stroke-width="2.4" stroke-linecap="round"/>
    <text x="76.3" y="50" text-anchor="middle" font-family="'JetBrains Mono',ui-monospace,monospace" font-size="9.5" fill="#6f6f7e">Expired</text>
  </g>
  <g transform="translate(686.3,340)">
    <rect width="152.6" height="64" rx="11" fill="#0d0d12" stroke="rgba(255,255,255,0.07)"/>
    <circle cx="72.28571428571429" cy="24" r="3" fill="#8b7cff"/><circle cx="80.28571428571429" cy="24" r="3" fill="#8b7cff"/>
    <text x="76.3" y="50" text-anchor="middle" font-family="'JetBrains Mono',ui-monospace,monospace" font-size="9.5" fill="#6f6f7e">Pending</text>
  </g>
  <g transform="translate(848.9,340)">
    <rect width="152.6" height="64" rx="11" fill="#0d0d12" stroke="rgba(255,255,255,0.07)"/>
    <circle cx="76.28571428571429" cy="24" r="11" fill="none" stroke="rgba(255,255,255,0.13)" stroke-width="3"/><path d="M 76.28571428571429 13 a 11 11 0 1 1 -7.7 2.9" fill="none" stroke="#8b7cff" stroke-width="3" stroke-linecap="round"/>
    <text x="76.3" y="50" text-anchor="middle" font-family="'JetBrains Mono',ui-monospace,monospace" font-size="9.5" fill="#6f6f7e">Uploading</text>
  </g>
  <g transform="translate(1011.4,340)">
    <rect width="152.6" height="64" rx="11" fill="#0d0d12" stroke="rgba(255,255,255,0.07)"/>
    <circle cx="76.28571428571429" cy="24" r="11" fill="none" stroke="#5ec98a" stroke-width="2.2" opacity="0.45"/><path d="M 71.28571428571429 24 l 4 4 l 7.5 -8.5" fill="none" stroke="#5ec98a" stroke-width="2.6" stroke-linecap="round" stroke-linejoin="round"/>
    <text x="76.3" y="50" text-anchor="middle" font-family="'JetBrains Mono',ui-monospace,monospace" font-size="9.5" fill="#6f6f7e">Done</text>
  </g>
  </g>

  <!-- vignette to focus the center -->
  <rect x="0" y="0" width="1200" height="440" rx="24" fill="url(#vignette)"/>

  <!-- frosted-glass card: real backdrop blur of the wall behind the card region -->
  <rect x="260" y="98" width="680" height="244" rx="26" fill="rgba(8,8,11,0.5)" filter="url(#cardShadow)"/>
  <use href="#wall" clip-path="url(#cardClip)" filter="url(#frost)" opacity="0.55"/>
  <rect x="260" y="98" width="680" height="244" rx="26" fill="rgba(10,11,16,0.34)"/>
  <rect x="260" y="98" width="680" height="244" rx="26" fill="none" stroke="rgba(255,255,255,0.2)"/>
  <rect x="261.2" y="99.2" width="677.6" height="241.6" rx="25" fill="none" stroke="rgba(255,255,255,0.08)"/>

  <!-- card content -->
  <g transform="translate(600,220)">
    <g transform="translate(0,-80)">
      <rect x="-66" y="-9" width="18" height="18" rx="4" fill="url(#brand)" transform="rotate(45 -57 0)"/>
      <text x="-42" y="5" font-family="'Space Grotesk',sans-serif" font-size="20" font-weight="600" fill="url(#brand)">StateKit</text>
    </g>
    <text x="0" y="-20" text-anchor="middle" font-family="'Space Grotesk',sans-serif" font-size="56" font-weight="700" letter-spacing="-2" fill="url(#headline)">Build Better States.</text>
    <text x="0" y="22" text-anchor="middle" font-family="'Space Grotesk',sans-serif" font-size="16" fill="#9c9caa">Every state your app can hit — loading, empty, error, offline —</text>
    <text x="0" y="44" text-anchor="middle" font-family="'Space Grotesk',sans-serif" font-size="16" fill="#9c9caa">animated, themeable, production-ready.</text>
    <g transform="translate(0,86)">
      <rect x="-150" y="-19" width="300" height="38" rx="10" fill="rgba(139,124,255,0.10)" stroke="rgba(139,124,255,0.30)"/>
      <text x="0" y="5" text-anchor="middle" font-family="'JetBrains Mono',ui-monospace,monospace" font-size="14" fill="#b9adff">npm i @babanomania/statekit</text>
    </g>
  </g>
</svg>
